<svg width="24" height="24" viewBox="0 0 24 24" xmlns="http://www.w3.org/2000/svg">
    <g fill="#FFF" fill-rule="nonzero">
        <path d="M15.556 14.222c-.732 0-1.334.602-1.334 1.334 0 .732.602 1.333 1.334 1.333.758 0 1.333-.601 1.333-1.333s-.601-1.334-1.333-1.334zM9.333 10.667c.732 0 1.334-.581 1.334-1.32 0-.74-.602-1.347-1.334-1.347C8.575 8 8 8.58 8 9.32c0 .74.601 1.347 1.333 1.347z"/>
        <path d="m23.612 10.733-.905-1.345a1.05 1.05 0 0 1-.104-.491l.104-1.63A2.295 2.295 0 0 0 21.44 5.07l-1.449-.724a.707.707 0 0 1-.336-.336l-.724-1.449a2.32 2.32 0 0 0-2.198-1.267l-1.63.104c-.155 0-.336-.026-.465-.13l-1.345-.88a2.264 2.264 0 0 0-2.534 0l-1.345.906a1.233 1.233 0 0 1-.517.104l-1.63-.104A2.295 2.295 0 0 0 5.07 2.56L4.345 4.01a.707.707 0 0 1-.336.336l-1.449.724a2.32 2.32 0 0 0-1.267 2.198l.104 1.63c0 .155-.026.336-.13.465l-.88 1.345a2.264 2.264 0 0 0 0 2.534l.906 1.345c.078.181.104.336.104.517l-.104 1.63A2.295 2.295 0 0 0 2.56 18.93l1.449.724a.84.84 0 0 1 .336.336l.724 1.449a2.32 2.32 0 0 0 2.198 1.267l1.63-.104c.155 0 .336.026.465.13l1.345.88a2.28 2.28 0 0 0 1.267.387c.44 0 .88-.13 1.267-.388l1.345-.905c.13-.078.31-.13.466-.13l1.629.104a2.295 2.295 0 0 0 2.198-1.267l.724-1.448a.707.707 0 0 1 .337-.337l1.448-.724a2.32 2.32 0 0 0 1.267-2.198l-.052-1.604c0-.155.026-.336.13-.465l.88-1.37a2.264 2.264 0 0 0 0-2.535zM9.026 5.74a2.88 2.88 0 0 1 2.87 2.871 2.88 2.88 0 0 1-2.87 2.87 2.848 2.848 0 0 1-2.87-2.87 2.88 2.88 0 0 1 2.87-2.87zM7.603 17.457a.789.789 0 0 1-.543.233.789.789 0 0 1-.543-.233c-.31-.285-.31-.776 0-1.086l9.88-9.854c.284-.31.775-.31 1.086 0 .284.31.284.802-.026 1.086l-9.854 9.854zm7.371.802a2.88 2.88 0 0 1-2.87-2.871 2.88 2.88 0 0 1 2.87-2.87 2.848 2.848 0 0 1 2.87 2.87 2.88 2.88 0 0 1-2.87 2.87z"/>
    </g>
</svg>
